<mxfile host="app.diagrams.net" modified="2024-02-16T14:23:45.032Z" agent="Mozilla/5.0 (Windows NT 10.0; Win64; x64) AppleWebKit/537.36 (KHTML, like Gecko) Chrome/120.0.0.0 Safari/537.36" etag="k8CD_Nov32_BTnDAxVW-" version="23.1.4" type="github">
  <diagram name="Page-1" id="nO2oDIxmOd1Un-5BvMMm">
    <mxGraphModel dx="3088" dy="2007" grid="1" gridSize="10" guides="1" tooltips="1" connect="1" arrows="1" fold="1" page="1" pageScale="1" pageWidth="827" pageHeight="1169" background="#E8E8E8" math="0" shadow="0">
      <root>
        <mxCell id="0" />
        <mxCell id="1" parent="0" />
        <mxCell id="Zlbz_0LO8d7bkOxlH6dM-13" style="edgeStyle=orthogonalEdgeStyle;rounded=0;orthogonalLoop=1;jettySize=auto;html=1;exitX=1;exitY=0.5;exitDx=0;exitDy=0;entryX=0;entryY=0.5;entryDx=0;entryDy=0;" parent="1" source="Zlbz_0LO8d7bkOxlH6dM-8" target="Zlbz_0LO8d7bkOxlH6dM-4" edge="1">
          <mxGeometry relative="1" as="geometry" />
        </mxCell>
        <mxCell id="Zlbz_0LO8d7bkOxlH6dM-19" value="Roasting" style="swimlane;whiteSpace=wrap;html=1;" parent="1" vertex="1">
          <mxGeometry y="-60" width="320" height="220" as="geometry" />
        </mxCell>
        <mxCell id="Zlbz_0LO8d7bkOxlH6dM-91" style="edgeStyle=orthogonalEdgeStyle;rounded=0;orthogonalLoop=1;jettySize=auto;html=1;exitX=1;exitY=0.5;exitDx=0;exitDy=0;entryX=0;entryY=0.5;entryDx=0;entryDy=0;" parent="Zlbz_0LO8d7bkOxlH6dM-19" source="Zlbz_0LO8d7bkOxlH6dM-6" target="Zlbz_0LO8d7bkOxlH6dM-88" edge="1">
          <mxGeometry relative="1" as="geometry" />
        </mxCell>
        <mxCell id="Zlbz_0LO8d7bkOxlH6dM-6" value="5 Alumina Dust" style="rounded=1;whiteSpace=wrap;html=1;" parent="Zlbz_0LO8d7bkOxlH6dM-19" vertex="1">
          <mxGeometry x="20" y="140" width="120" height="60" as="geometry" />
        </mxCell>
        <mxCell id="Zlbz_0LO8d7bkOxlH6dM-89" style="edgeStyle=orthogonalEdgeStyle;rounded=0;orthogonalLoop=1;jettySize=auto;html=1;exitX=1;exitY=0.5;exitDx=0;exitDy=0;entryX=0;entryY=0.5;entryDx=0;entryDy=0;" parent="Zlbz_0LO8d7bkOxlH6dM-19" source="Zlbz_0LO8d7bkOxlH6dM-7" target="Zlbz_0LO8d7bkOxlH6dM-88" edge="1">
          <mxGeometry relative="1" as="geometry" />
        </mxCell>
        <mxCell id="Zlbz_0LO8d7bkOxlH6dM-7" value="6kL Hydrofluoric Acid" style="rounded=1;whiteSpace=wrap;html=1;" parent="Zlbz_0LO8d7bkOxlH6dM-19" vertex="1">
          <mxGeometry x="20" y="40" width="120" height="60" as="geometry" />
        </mxCell>
        <mxCell id="Zlbz_0LO8d7bkOxlH6dM-8" value="8 Aluminium Trifluoride Dust" style="rounded=0;whiteSpace=wrap;html=1;" parent="Zlbz_0LO8d7bkOxlH6dM-19" vertex="1">
          <mxGeometry x="180" y="40" width="120" height="60" as="geometry" />
        </mxCell>
        <mxCell id="Zlbz_0LO8d7bkOxlH6dM-10" style="edgeStyle=orthogonalEdgeStyle;rounded=0;orthogonalLoop=1;jettySize=auto;html=1;exitX=1;exitY=0.5;exitDx=0;exitDy=0;entryX=0;entryY=0.5;entryDx=0;entryDy=0;" parent="Zlbz_0LO8d7bkOxlH6dM-19" source="Zlbz_0LO8d7bkOxlH6dM-7" target="Zlbz_0LO8d7bkOxlH6dM-8" edge="1">
          <mxGeometry relative="1" as="geometry" />
        </mxCell>
        <mxCell id="Zlbz_0LO8d7bkOxlH6dM-11" style="edgeStyle=orthogonalEdgeStyle;rounded=0;orthogonalLoop=1;jettySize=auto;html=1;exitX=1;exitY=0.5;exitDx=0;exitDy=0;entryX=0;entryY=0.5;entryDx=0;entryDy=0;" parent="Zlbz_0LO8d7bkOxlH6dM-19" source="Zlbz_0LO8d7bkOxlH6dM-6" target="Zlbz_0LO8d7bkOxlH6dM-8" edge="1">
          <mxGeometry relative="1" as="geometry" />
        </mxCell>
        <mxCell id="Zlbz_0LO8d7bkOxlH6dM-88" value="9kL Steam" style="rounded=0;whiteSpace=wrap;html=1;dashed=1;" parent="Zlbz_0LO8d7bkOxlH6dM-19" vertex="1">
          <mxGeometry x="180" y="140" width="120" height="60" as="geometry" />
        </mxCell>
        <mxCell id="Zlbz_0LO8d7bkOxlH6dM-20" value="Advanced Electrolysis" style="swimlane;whiteSpace=wrap;html=1;" parent="1" vertex="1">
          <mxGeometry x="360" y="-60" width="320" height="260" as="geometry" />
        </mxCell>
        <mxCell id="Zlbz_0LO8d7bkOxlH6dM-95" style="edgeStyle=orthogonalEdgeStyle;rounded=0;orthogonalLoop=1;jettySize=auto;html=1;exitX=1;exitY=0.5;exitDx=0;exitDy=0;entryX=0;entryY=0.5;entryDx=0;entryDy=0;" parent="Zlbz_0LO8d7bkOxlH6dM-20" source="Zlbz_0LO8d7bkOxlH6dM-3" target="Zlbz_0LO8d7bkOxlH6dM-93" edge="1">
          <mxGeometry relative="1" as="geometry" />
        </mxCell>
        <mxCell id="Zlbz_0LO8d7bkOxlH6dM-96" style="edgeStyle=orthogonalEdgeStyle;rounded=0;orthogonalLoop=1;jettySize=auto;html=1;exitX=1;exitY=0.5;exitDx=0;exitDy=0;entryX=0;entryY=0.5;entryDx=0;entryDy=0;" parent="Zlbz_0LO8d7bkOxlH6dM-20" source="Zlbz_0LO8d7bkOxlH6dM-3" target="Zlbz_0LO8d7bkOxlH6dM-94" edge="1">
          <mxGeometry relative="1" as="geometry" />
        </mxCell>
        <mxCell id="Zlbz_0LO8d7bkOxlH6dM-3" value="3 Coke dust" style="rounded=1;whiteSpace=wrap;html=1;dashed=1;" parent="Zlbz_0LO8d7bkOxlH6dM-20" vertex="1">
          <mxGeometry x="20" y="40" width="120" height="60" as="geometry" />
        </mxCell>
        <mxCell id="Zlbz_0LO8d7bkOxlH6dM-97" style="edgeStyle=orthogonalEdgeStyle;rounded=0;orthogonalLoop=1;jettySize=auto;html=1;exitX=1;exitY=0.5;exitDx=0;exitDy=0;entryX=0;entryY=0.5;entryDx=0;entryDy=0;" parent="Zlbz_0LO8d7bkOxlH6dM-20" source="Zlbz_0LO8d7bkOxlH6dM-4" target="Zlbz_0LO8d7bkOxlH6dM-93" edge="1">
          <mxGeometry relative="1" as="geometry" />
        </mxCell>
        <mxCell id="Zlbz_0LO8d7bkOxlH6dM-98" style="edgeStyle=orthogonalEdgeStyle;rounded=0;orthogonalLoop=1;jettySize=auto;html=1;exitX=1;exitY=0.5;exitDx=0;exitDy=0;entryX=0;entryY=0.5;entryDx=0;entryDy=0;" parent="Zlbz_0LO8d7bkOxlH6dM-20" source="Zlbz_0LO8d7bkOxlH6dM-4" target="Zlbz_0LO8d7bkOxlH6dM-94" edge="1">
          <mxGeometry relative="1" as="geometry" />
        </mxCell>
        <mxCell id="Zlbz_0LO8d7bkOxlH6dM-4" value="1 Aluminium Trifluoride Dust" style="rounded=1;whiteSpace=wrap;html=1;" parent="Zlbz_0LO8d7bkOxlH6dM-20" vertex="1">
          <mxGeometry x="20" y="110" width="120" height="60" as="geometry" />
        </mxCell>
        <mxCell id="Zlbz_0LO8d7bkOxlH6dM-99" style="edgeStyle=orthogonalEdgeStyle;rounded=0;orthogonalLoop=1;jettySize=auto;html=1;exitX=1;exitY=0.5;exitDx=0;exitDy=0;entryX=0;entryY=0.5;entryDx=0;entryDy=0;" parent="Zlbz_0LO8d7bkOxlH6dM-20" source="Zlbz_0LO8d7bkOxlH6dM-5" target="Zlbz_0LO8d7bkOxlH6dM-93" edge="1">
          <mxGeometry relative="1" as="geometry" />
        </mxCell>
        <mxCell id="Zlbz_0LO8d7bkOxlH6dM-100" style="edgeStyle=orthogonalEdgeStyle;rounded=0;orthogonalLoop=1;jettySize=auto;html=1;exitX=1;exitY=0.5;exitDx=0;exitDy=0;entryX=0;entryY=0.5;entryDx=0;entryDy=0;" parent="Zlbz_0LO8d7bkOxlH6dM-20" source="Zlbz_0LO8d7bkOxlH6dM-5" target="Zlbz_0LO8d7bkOxlH6dM-94" edge="1">
          <mxGeometry relative="1" as="geometry" />
        </mxCell>
        <mxCell id="Zlbz_0LO8d7bkOxlH6dM-5" value="10 Alumina Dust" style="rounded=1;whiteSpace=wrap;html=1;" parent="Zlbz_0LO8d7bkOxlH6dM-20" vertex="1">
          <mxGeometry x="20" y="180" width="120" height="60" as="geometry" />
        </mxCell>
        <mxCell id="Ou3ePZz4okydDDDF1puV-29" style="edgeStyle=none;curved=1;rounded=0;orthogonalLoop=1;jettySize=auto;html=1;fontSize=12;startSize=8;endSize=8;" parent="Zlbz_0LO8d7bkOxlH6dM-20" source="Zlbz_0LO8d7bkOxlH6dM-1" target="Zlbz_0LO8d7bkOxlH6dM-3" edge="1">
          <mxGeometry relative="1" as="geometry" />
        </mxCell>
        <mxCell id="Zlbz_0LO8d7bkOxlH6dM-1" value="8 Aluminium Ingots" style="rounded=0;whiteSpace=wrap;html=1;glass=1;" parent="Zlbz_0LO8d7bkOxlH6dM-20" vertex="1">
          <mxGeometry x="180" y="40" width="120" height="60" as="geometry" />
        </mxCell>
        <mxCell id="Zlbz_0LO8d7bkOxlH6dM-14" style="edgeStyle=orthogonalEdgeStyle;rounded=0;orthogonalLoop=1;jettySize=auto;html=1;exitX=1;exitY=0.5;exitDx=0;exitDy=0;entryX=0;entryY=0.5;entryDx=0;entryDy=0;" parent="Zlbz_0LO8d7bkOxlH6dM-20" source="Zlbz_0LO8d7bkOxlH6dM-4" target="Zlbz_0LO8d7bkOxlH6dM-1" edge="1">
          <mxGeometry relative="1" as="geometry" />
        </mxCell>
        <mxCell id="Zlbz_0LO8d7bkOxlH6dM-15" style="edgeStyle=orthogonalEdgeStyle;rounded=0;orthogonalLoop=1;jettySize=auto;html=1;exitX=1;exitY=0.5;exitDx=0;exitDy=0;entryX=0;entryY=0.5;entryDx=0;entryDy=0;" parent="Zlbz_0LO8d7bkOxlH6dM-20" source="Zlbz_0LO8d7bkOxlH6dM-3" target="Zlbz_0LO8d7bkOxlH6dM-1" edge="1">
          <mxGeometry relative="1" as="geometry" />
        </mxCell>
        <mxCell id="Zlbz_0LO8d7bkOxlH6dM-17" style="edgeStyle=orthogonalEdgeStyle;rounded=0;orthogonalLoop=1;jettySize=auto;html=1;exitX=1;exitY=0.5;exitDx=0;exitDy=0;entryX=0;entryY=0.5;entryDx=0;entryDy=0;" parent="Zlbz_0LO8d7bkOxlH6dM-20" source="Zlbz_0LO8d7bkOxlH6dM-5" target="Zlbz_0LO8d7bkOxlH6dM-1" edge="1">
          <mxGeometry relative="1" as="geometry" />
        </mxCell>
        <mxCell id="Zlbz_0LO8d7bkOxlH6dM-93" value="750L Hydrogen Fluoride" style="rounded=0;whiteSpace=wrap;html=1;" parent="Zlbz_0LO8d7bkOxlH6dM-20" vertex="1">
          <mxGeometry x="180" y="110" width="120" height="60" as="geometry" />
        </mxCell>
        <mxCell id="Zlbz_0LO8d7bkOxlH6dM-94" value="3kL Carbon Dioxide" style="rounded=0;whiteSpace=wrap;html=1;dashed=1;" parent="Zlbz_0LO8d7bkOxlH6dM-20" vertex="1">
          <mxGeometry x="180" y="180" width="120" height="60" as="geometry" />
        </mxCell>
        <mxCell id="Zlbz_0LO8d7bkOxlH6dM-21" value="EBF" style="swimlane;whiteSpace=wrap;html=1;" parent="1" vertex="1">
          <mxGeometry y="200" width="320" height="220" as="geometry" />
        </mxCell>
        <mxCell id="Zlbz_0LO8d7bkOxlH6dM-27" style="edgeStyle=orthogonalEdgeStyle;rounded=0;orthogonalLoop=1;jettySize=auto;html=1;exitX=1;exitY=0.5;exitDx=0;exitDy=0;entryX=0;entryY=0.5;entryDx=0;entryDy=0;" parent="Zlbz_0LO8d7bkOxlH6dM-21" source="Zlbz_0LO8d7bkOxlH6dM-23" target="Zlbz_0LO8d7bkOxlH6dM-26" edge="1">
          <mxGeometry relative="1" as="geometry" />
        </mxCell>
        <mxCell id="Zlbz_0LO8d7bkOxlH6dM-87" style="edgeStyle=orthogonalEdgeStyle;rounded=0;orthogonalLoop=1;jettySize=auto;html=1;exitX=1;exitY=0.5;exitDx=0;exitDy=0;entryX=0;entryY=0.5;entryDx=0;entryDy=0;" parent="Zlbz_0LO8d7bkOxlH6dM-21" source="Zlbz_0LO8d7bkOxlH6dM-23" target="Zlbz_0LO8d7bkOxlH6dM-86" edge="1">
          <mxGeometry relative="1" as="geometry" />
        </mxCell>
        <mxCell id="Zlbz_0LO8d7bkOxlH6dM-23" value="14 Aluminium Hydroxide Dust" style="rounded=1;whiteSpace=wrap;html=1;" parent="Zlbz_0LO8d7bkOxlH6dM-21" vertex="1">
          <mxGeometry x="20" y="90" width="120" height="60" as="geometry" />
        </mxCell>
        <mxCell id="Zlbz_0LO8d7bkOxlH6dM-26" value="5 Alumina Dust" style="rounded=0;whiteSpace=wrap;html=1;" parent="Zlbz_0LO8d7bkOxlH6dM-21" vertex="1">
          <mxGeometry x="180" y="40" width="120" height="60" as="geometry" />
        </mxCell>
        <mxCell id="Zlbz_0LO8d7bkOxlH6dM-86" value="3kL Steam" style="rounded=0;whiteSpace=wrap;html=1;dashed=1;" parent="Zlbz_0LO8d7bkOxlH6dM-21" vertex="1">
          <mxGeometry x="180" y="140" width="120" height="60" as="geometry" />
        </mxCell>
        <mxCell id="Zlbz_0LO8d7bkOxlH6dM-31" value="Crystallizer" style="swimlane;whiteSpace=wrap;html=1;" parent="1" vertex="1">
          <mxGeometry x="-360" y="-60" width="320" height="320" as="geometry" />
        </mxCell>
        <mxCell id="Zlbz_0LO8d7bkOxlH6dM-32" value="7 Aluminium Hydroxide Dust" style="rounded=0;whiteSpace=wrap;html=1;" parent="Zlbz_0LO8d7bkOxlH6dM-31" vertex="1">
          <mxGeometry x="180" y="140" width="120" height="60" as="geometry" />
        </mxCell>
        <mxCell id="Zlbz_0LO8d7bkOxlH6dM-39" style="edgeStyle=orthogonalEdgeStyle;rounded=0;orthogonalLoop=1;jettySize=auto;html=1;exitX=1;exitY=0.5;exitDx=0;exitDy=0;entryX=0;entryY=0.5;entryDx=0;entryDy=0;" parent="Zlbz_0LO8d7bkOxlH6dM-31" source="Zlbz_0LO8d7bkOxlH6dM-33" target="Zlbz_0LO8d7bkOxlH6dM-32" edge="1">
          <mxGeometry relative="1" as="geometry" />
        </mxCell>
        <mxCell id="Zlbz_0LO8d7bkOxlH6dM-56" style="edgeStyle=orthogonalEdgeStyle;rounded=0;orthogonalLoop=1;jettySize=auto;html=1;exitX=1;exitY=0.5;exitDx=0;exitDy=0;entryX=0;entryY=0.5;entryDx=0;entryDy=0;" parent="Zlbz_0LO8d7bkOxlH6dM-31" source="Zlbz_0LO8d7bkOxlH6dM-33" target="Zlbz_0LO8d7bkOxlH6dM-53" edge="1">
          <mxGeometry relative="1" as="geometry" />
        </mxCell>
        <mxCell id="Zlbz_0LO8d7bkOxlH6dM-33" value="1 Aluminium Hydroxide Dust (NC)" style="rounded=1;whiteSpace=wrap;html=1;dashed=1;" parent="Zlbz_0LO8d7bkOxlH6dM-31" vertex="1">
          <mxGeometry x="20" y="40" width="120" height="60" as="geometry" />
        </mxCell>
        <mxCell id="Zlbz_0LO8d7bkOxlH6dM-36" style="edgeStyle=orthogonalEdgeStyle;rounded=0;orthogonalLoop=1;jettySize=auto;html=1;exitX=1;exitY=0.5;exitDx=0;exitDy=0;entryX=0;entryY=0.5;entryDx=0;entryDy=0;" parent="Zlbz_0LO8d7bkOxlH6dM-31" source="Zlbz_0LO8d7bkOxlH6dM-34" target="Zlbz_0LO8d7bkOxlH6dM-32" edge="1">
          <mxGeometry relative="1" as="geometry" />
        </mxCell>
        <mxCell id="Zlbz_0LO8d7bkOxlH6dM-55" style="edgeStyle=orthogonalEdgeStyle;rounded=0;orthogonalLoop=1;jettySize=auto;html=1;exitX=1;exitY=0.5;exitDx=0;exitDy=0;entryX=0;entryY=0.5;entryDx=0;entryDy=0;" parent="Zlbz_0LO8d7bkOxlH6dM-31" source="Zlbz_0LO8d7bkOxlH6dM-34" target="Zlbz_0LO8d7bkOxlH6dM-53" edge="1">
          <mxGeometry relative="1" as="geometry" />
        </mxCell>
        <mxCell id="Zlbz_0LO8d7bkOxlH6dM-34" value="1500L Water" style="rounded=1;whiteSpace=wrap;html=1;dashed=1;" parent="Zlbz_0LO8d7bkOxlH6dM-31" vertex="1">
          <mxGeometry x="20" y="140" width="120" height="60" as="geometry" />
        </mxCell>
        <mxCell id="Zlbz_0LO8d7bkOxlH6dM-38" style="edgeStyle=orthogonalEdgeStyle;rounded=0;orthogonalLoop=1;jettySize=auto;html=1;exitX=1;exitY=0.5;exitDx=0;exitDy=0;entryX=0;entryY=0.5;entryDx=0;entryDy=0;" parent="Zlbz_0LO8d7bkOxlH6dM-31" source="Zlbz_0LO8d7bkOxlH6dM-35" target="Zlbz_0LO8d7bkOxlH6dM-32" edge="1">
          <mxGeometry relative="1" as="geometry" />
        </mxCell>
        <mxCell id="Zlbz_0LO8d7bkOxlH6dM-54" style="edgeStyle=orthogonalEdgeStyle;rounded=0;orthogonalLoop=1;jettySize=auto;html=1;exitX=1;exitY=0.5;exitDx=0;exitDy=0;entryX=0;entryY=0.5;entryDx=0;entryDy=0;" parent="Zlbz_0LO8d7bkOxlH6dM-31" source="Zlbz_0LO8d7bkOxlH6dM-35" target="Zlbz_0LO8d7bkOxlH6dM-53" edge="1">
          <mxGeometry relative="1" as="geometry" />
        </mxCell>
        <mxCell id="Zlbz_0LO8d7bkOxlH6dM-35" value="1500L Sodium Aluminate Solution" style="rounded=1;whiteSpace=wrap;html=1;" parent="Zlbz_0LO8d7bkOxlH6dM-31" vertex="1">
          <mxGeometry x="20" y="240" width="120" height="60" as="geometry" />
        </mxCell>
        <mxCell id="Zlbz_0LO8d7bkOxlH6dM-53" value="1kL Impure Sodium Hydroxide Solution" style="rounded=0;whiteSpace=wrap;html=1;" parent="Zlbz_0LO8d7bkOxlH6dM-31" vertex="1">
          <mxGeometry x="180" y="240" width="120" height="60" as="geometry" />
        </mxCell>
        <mxCell id="Zlbz_0LO8d7bkOxlH6dM-40" style="edgeStyle=orthogonalEdgeStyle;rounded=0;orthogonalLoop=1;jettySize=auto;html=1;exitX=1;exitY=0.5;exitDx=0;exitDy=0;entryX=0;entryY=0.5;entryDx=0;entryDy=0;" parent="1" source="Zlbz_0LO8d7bkOxlH6dM-32" target="Zlbz_0LO8d7bkOxlH6dM-23" edge="1">
          <mxGeometry relative="1" as="geometry">
            <Array as="points">
              <mxPoint x="-20" y="110" />
              <mxPoint x="-20" y="300" />
              <mxPoint x="20" y="300" />
            </Array>
          </mxGeometry>
        </mxCell>
        <mxCell id="Zlbz_0LO8d7bkOxlH6dM-41" value="Centrifuge" style="swimlane;whiteSpace=wrap;html=1;" parent="1" vertex="1">
          <mxGeometry x="-720" y="-60" width="320" height="220" as="geometry" />
        </mxCell>
        <mxCell id="Zlbz_0LO8d7bkOxlH6dM-83" style="edgeStyle=orthogonalEdgeStyle;rounded=0;orthogonalLoop=1;jettySize=auto;html=1;exitX=1;exitY=0.5;exitDx=0;exitDy=0;" parent="Zlbz_0LO8d7bkOxlH6dM-41" source="Zlbz_0LO8d7bkOxlH6dM-42" target="Zlbz_0LO8d7bkOxlH6dM-44" edge="1">
          <mxGeometry relative="1" as="geometry" />
        </mxCell>
        <mxCell id="Zlbz_0LO8d7bkOxlH6dM-85" style="edgeStyle=orthogonalEdgeStyle;rounded=0;orthogonalLoop=1;jettySize=auto;html=1;exitX=1;exitY=0.5;exitDx=0;exitDy=0;entryX=0;entryY=0.5;entryDx=0;entryDy=0;" parent="Zlbz_0LO8d7bkOxlH6dM-41" source="Zlbz_0LO8d7bkOxlH6dM-42" target="Zlbz_0LO8d7bkOxlH6dM-84" edge="1">
          <mxGeometry relative="1" as="geometry" />
        </mxCell>
        <mxCell id="Zlbz_0LO8d7bkOxlH6dM-42" value="3kL Impure Sodium Aluminate Solution" style="rounded=1;whiteSpace=wrap;html=1;" parent="Zlbz_0LO8d7bkOxlH6dM-41" vertex="1">
          <mxGeometry x="20" y="90" width="120" height="60" as="geometry" />
        </mxCell>
        <mxCell id="Zlbz_0LO8d7bkOxlH6dM-44" value="3kL Sodium Aluminate Solution" style="rounded=0;whiteSpace=wrap;html=1;" parent="Zlbz_0LO8d7bkOxlH6dM-41" vertex="1">
          <mxGeometry x="180" y="40" width="120" height="60" as="geometry" />
        </mxCell>
        <mxCell id="Zlbz_0LO8d7bkOxlH6dM-84" value="500L Red Mud" style="rounded=0;whiteSpace=wrap;html=1;dashed=1;" parent="Zlbz_0LO8d7bkOxlH6dM-41" vertex="1">
          <mxGeometry x="180" y="140" width="120" height="60" as="geometry" />
        </mxCell>
        <mxCell id="Zlbz_0LO8d7bkOxlH6dM-45" style="edgeStyle=orthogonalEdgeStyle;rounded=0;orthogonalLoop=1;jettySize=auto;html=1;exitX=1;exitY=0.5;exitDx=0;exitDy=0;entryX=0;entryY=0.5;entryDx=0;entryDy=0;" parent="1" source="Zlbz_0LO8d7bkOxlH6dM-44" target="Zlbz_0LO8d7bkOxlH6dM-35" edge="1">
          <mxGeometry relative="1" as="geometry" />
        </mxCell>
        <mxCell id="Zlbz_0LO8d7bkOxlH6dM-46" value="Roasting" style="swimlane;whiteSpace=wrap;html=1;" parent="1" vertex="1">
          <mxGeometry x="-1080" y="-60" width="320" height="220" as="geometry" />
        </mxCell>
        <mxCell id="Zlbz_0LO8d7bkOxlH6dM-47" value="3kL Impure Sodium Aluminate Solution" style="rounded=0;whiteSpace=wrap;html=1;" parent="Zlbz_0LO8d7bkOxlH6dM-46" vertex="1">
          <mxGeometry x="180" y="90" width="120" height="60" as="geometry" />
        </mxCell>
        <mxCell id="Zlbz_0LO8d7bkOxlH6dM-52" style="edgeStyle=orthogonalEdgeStyle;rounded=0;orthogonalLoop=1;jettySize=auto;html=1;exitX=1;exitY=0.5;exitDx=0;exitDy=0;" parent="Zlbz_0LO8d7bkOxlH6dM-46" source="Zlbz_0LO8d7bkOxlH6dM-49" target="Zlbz_0LO8d7bkOxlH6dM-47" edge="1">
          <mxGeometry relative="1" as="geometry" />
        </mxCell>
        <mxCell id="Zlbz_0LO8d7bkOxlH6dM-49" value="5 Bauxite Dust" style="rounded=1;whiteSpace=wrap;html=1;dashed=1;" parent="Zlbz_0LO8d7bkOxlH6dM-46" vertex="1">
          <mxGeometry x="20" y="40" width="120" height="60" as="geometry" />
        </mxCell>
        <mxCell id="Zlbz_0LO8d7bkOxlH6dM-51" style="edgeStyle=orthogonalEdgeStyle;rounded=0;orthogonalLoop=1;jettySize=auto;html=1;exitX=1;exitY=0.5;exitDx=0;exitDy=0;" parent="Zlbz_0LO8d7bkOxlH6dM-46" source="Zlbz_0LO8d7bkOxlH6dM-50" target="Zlbz_0LO8d7bkOxlH6dM-47" edge="1">
          <mxGeometry relative="1" as="geometry" />
        </mxCell>
        <mxCell id="Zlbz_0LO8d7bkOxlH6dM-50" value="2kL Sodium Hydroxide Solution" style="rounded=1;whiteSpace=wrap;html=1;sketch=1;curveFitting=1;jiggle=2;" parent="Zlbz_0LO8d7bkOxlH6dM-46" vertex="1">
          <mxGeometry x="20" y="140" width="120" height="60" as="geometry" />
        </mxCell>
        <mxCell id="Zlbz_0LO8d7bkOxlH6dM-48" style="edgeStyle=orthogonalEdgeStyle;rounded=0;orthogonalLoop=1;jettySize=auto;html=1;exitX=1;exitY=0.5;exitDx=0;exitDy=0;" parent="1" source="Zlbz_0LO8d7bkOxlH6dM-47" target="Zlbz_0LO8d7bkOxlH6dM-42" edge="1">
          <mxGeometry relative="1" as="geometry" />
        </mxCell>
        <mxCell id="Zlbz_0LO8d7bkOxlH6dM-57" value="Advanced Electrolysis (needs to be done only once)" style="swimlane;whiteSpace=wrap;html=1;dashed=1;dashPattern=1 4;" parent="1" vertex="1">
          <mxGeometry x="-1440" y="-60" width="320" height="420" as="geometry" />
        </mxCell>
        <mxCell id="Zlbz_0LO8d7bkOxlH6dM-74" style="edgeStyle=orthogonalEdgeStyle;rounded=0;orthogonalLoop=1;jettySize=auto;html=1;exitX=1;exitY=0.5;exitDx=0;exitDy=0;" parent="Zlbz_0LO8d7bkOxlH6dM-57" source="Zlbz_0LO8d7bkOxlH6dM-64" target="Zlbz_0LO8d7bkOxlH6dM-68" edge="1">
          <mxGeometry relative="1" as="geometry" />
        </mxCell>
        <mxCell id="Zlbz_0LO8d7bkOxlH6dM-75" style="edgeStyle=orthogonalEdgeStyle;rounded=0;orthogonalLoop=1;jettySize=auto;html=1;exitX=1;exitY=0.5;exitDx=0;exitDy=0;entryX=0;entryY=0.5;entryDx=0;entryDy=0;" parent="Zlbz_0LO8d7bkOxlH6dM-57" source="Zlbz_0LO8d7bkOxlH6dM-64" target="Zlbz_0LO8d7bkOxlH6dM-66" edge="1">
          <mxGeometry relative="1" as="geometry" />
        </mxCell>
        <mxCell id="Zlbz_0LO8d7bkOxlH6dM-76" style="edgeStyle=orthogonalEdgeStyle;rounded=0;orthogonalLoop=1;jettySize=auto;html=1;exitX=1;exitY=0.5;exitDx=0;exitDy=0;entryX=0;entryY=0.5;entryDx=0;entryDy=0;" parent="Zlbz_0LO8d7bkOxlH6dM-57" source="Zlbz_0LO8d7bkOxlH6dM-64" target="Zlbz_0LO8d7bkOxlH6dM-67" edge="1">
          <mxGeometry relative="1" as="geometry" />
        </mxCell>
        <mxCell id="Zlbz_0LO8d7bkOxlH6dM-78" style="edgeStyle=orthogonalEdgeStyle;rounded=0;orthogonalLoop=1;jettySize=auto;html=1;exitX=1;exitY=0.5;exitDx=0;exitDy=0;entryX=0;entryY=0.5;entryDx=0;entryDy=0;" parent="Zlbz_0LO8d7bkOxlH6dM-57" source="Zlbz_0LO8d7bkOxlH6dM-64" target="Zlbz_0LO8d7bkOxlH6dM-69" edge="1">
          <mxGeometry relative="1" as="geometry" />
        </mxCell>
        <mxCell id="Zlbz_0LO8d7bkOxlH6dM-64" value="2kL Water" style="rounded=1;whiteSpace=wrap;html=1;dashed=1;" parent="Zlbz_0LO8d7bkOxlH6dM-57" vertex="1">
          <mxGeometry x="20" y="90" width="120" height="60" as="geometry" />
        </mxCell>
        <mxCell id="Zlbz_0LO8d7bkOxlH6dM-79" style="edgeStyle=orthogonalEdgeStyle;rounded=0;orthogonalLoop=1;jettySize=auto;html=1;exitX=1;exitY=0.5;exitDx=0;exitDy=0;entryX=0;entryY=0.5;entryDx=0;entryDy=0;" parent="Zlbz_0LO8d7bkOxlH6dM-57" source="Zlbz_0LO8d7bkOxlH6dM-65" target="Zlbz_0LO8d7bkOxlH6dM-68" edge="1">
          <mxGeometry relative="1" as="geometry" />
        </mxCell>
        <mxCell id="Zlbz_0LO8d7bkOxlH6dM-80" style="edgeStyle=orthogonalEdgeStyle;rounded=0;orthogonalLoop=1;jettySize=auto;html=1;exitX=1;exitY=0.5;exitDx=0;exitDy=0;entryX=0;entryY=0.5;entryDx=0;entryDy=0;" parent="Zlbz_0LO8d7bkOxlH6dM-57" source="Zlbz_0LO8d7bkOxlH6dM-65" target="Zlbz_0LO8d7bkOxlH6dM-66" edge="1">
          <mxGeometry relative="1" as="geometry" />
        </mxCell>
        <mxCell id="Zlbz_0LO8d7bkOxlH6dM-81" style="edgeStyle=orthogonalEdgeStyle;rounded=0;orthogonalLoop=1;jettySize=auto;html=1;exitX=1;exitY=0.5;exitDx=0;exitDy=0;entryX=0;entryY=0.5;entryDx=0;entryDy=0;" parent="Zlbz_0LO8d7bkOxlH6dM-57" source="Zlbz_0LO8d7bkOxlH6dM-65" target="Zlbz_0LO8d7bkOxlH6dM-67" edge="1">
          <mxGeometry relative="1" as="geometry" />
        </mxCell>
        <mxCell id="Zlbz_0LO8d7bkOxlH6dM-82" style="edgeStyle=orthogonalEdgeStyle;rounded=0;orthogonalLoop=1;jettySize=auto;html=1;exitX=1;exitY=0.5;exitDx=0;exitDy=0;entryX=0;entryY=0.5;entryDx=0;entryDy=0;" parent="Zlbz_0LO8d7bkOxlH6dM-57" source="Zlbz_0LO8d7bkOxlH6dM-65" target="Zlbz_0LO8d7bkOxlH6dM-69" edge="1">
          <mxGeometry relative="1" as="geometry" />
        </mxCell>
        <mxCell id="Zlbz_0LO8d7bkOxlH6dM-65" value="2kL Salt Water" style="rounded=1;whiteSpace=wrap;html=1;dashed=1;" parent="Zlbz_0LO8d7bkOxlH6dM-57" vertex="1">
          <mxGeometry x="20" y="290" width="120" height="60" as="geometry" />
        </mxCell>
        <mxCell id="Zlbz_0LO8d7bkOxlH6dM-68" value="1kL Chlorine" style="rounded=0;whiteSpace=wrap;html=1;dashed=1;" parent="Zlbz_0LO8d7bkOxlH6dM-57" vertex="1">
          <mxGeometry x="180" y="40" width="120" height="60" as="geometry" />
        </mxCell>
        <mxCell id="Zlbz_0LO8d7bkOxlH6dM-66" value="2kL Diluted Water" style="rounded=0;whiteSpace=wrap;html=1;dashed=1;" parent="Zlbz_0LO8d7bkOxlH6dM-57" vertex="1">
          <mxGeometry x="180" y="340" width="120" height="60" as="geometry" />
        </mxCell>
        <mxCell id="Zlbz_0LO8d7bkOxlH6dM-67" value="1kL Hydrogen" style="rounded=0;whiteSpace=wrap;html=1;dashed=1;" parent="Zlbz_0LO8d7bkOxlH6dM-57" vertex="1">
          <mxGeometry x="180" y="240" width="120" height="60" as="geometry" />
        </mxCell>
        <mxCell id="Zlbz_0LO8d7bkOxlH6dM-69" value="1kL Sodium Hydroxide Solution" style="rounded=0;whiteSpace=wrap;html=1;" parent="Zlbz_0LO8d7bkOxlH6dM-57" vertex="1">
          <mxGeometry x="180" y="140" width="120" height="60" as="geometry" />
        </mxCell>
        <mxCell id="Zlbz_0LO8d7bkOxlH6dM-58" value="Electrolyzer" style="swimlane;whiteSpace=wrap;html=1;" parent="1" vertex="1">
          <mxGeometry x="-1080" y="200" width="320" height="220" as="geometry" />
        </mxCell>
        <mxCell id="Zlbz_0LO8d7bkOxlH6dM-61" style="edgeStyle=orthogonalEdgeStyle;rounded=0;orthogonalLoop=1;jettySize=auto;html=1;exitX=1;exitY=0.5;exitDx=0;exitDy=0;entryX=0;entryY=0.5;entryDx=0;entryDy=0;" parent="Zlbz_0LO8d7bkOxlH6dM-58" source="Zlbz_0LO8d7bkOxlH6dM-59" target="Zlbz_0LO8d7bkOxlH6dM-60" edge="1">
          <mxGeometry relative="1" as="geometry" />
        </mxCell>
        <mxCell id="Zlbz_0LO8d7bkOxlH6dM-72" style="edgeStyle=orthogonalEdgeStyle;rounded=0;orthogonalLoop=1;jettySize=auto;html=1;exitX=1;exitY=0.5;exitDx=0;exitDy=0;entryX=0;entryY=0.5;entryDx=0;entryDy=0;" parent="Zlbz_0LO8d7bkOxlH6dM-58" source="Zlbz_0LO8d7bkOxlH6dM-59" target="Zlbz_0LO8d7bkOxlH6dM-71" edge="1">
          <mxGeometry relative="1" as="geometry" />
        </mxCell>
        <mxCell id="Zlbz_0LO8d7bkOxlH6dM-59" value="1kL Impure Sodium Hydroxide Solution" style="rounded=1;whiteSpace=wrap;html=1;" parent="Zlbz_0LO8d7bkOxlH6dM-58" vertex="1">
          <mxGeometry x="20" y="90" width="120" height="60" as="geometry" />
        </mxCell>
        <mxCell id="Zlbz_0LO8d7bkOxlH6dM-60" value="1kL Sodium Hydroxide&amp;nbsp;Solution" style="rounded=0;whiteSpace=wrap;html=1;" parent="Zlbz_0LO8d7bkOxlH6dM-58" vertex="1">
          <mxGeometry x="180" y="40" width="120" height="60" as="geometry" />
        </mxCell>
        <mxCell id="Zlbz_0LO8d7bkOxlH6dM-71" value="5% Gallium Dust" style="rounded=0;whiteSpace=wrap;html=1;glass=0;shadow=0;dashed=1;" parent="Zlbz_0LO8d7bkOxlH6dM-58" vertex="1">
          <mxGeometry x="180" y="140" width="120" height="60" as="geometry" />
        </mxCell>
        <mxCell id="Zlbz_0LO8d7bkOxlH6dM-62" style="edgeStyle=orthogonalEdgeStyle;rounded=0;orthogonalLoop=1;jettySize=auto;html=1;exitX=1;exitY=0.5;exitDx=0;exitDy=0;entryX=0;entryY=0.5;entryDx=0;entryDy=0;dashed=1;" parent="1" source="Zlbz_0LO8d7bkOxlH6dM-60" target="Zlbz_0LO8d7bkOxlH6dM-50" edge="1">
          <mxGeometry relative="1" as="geometry">
            <Array as="points">
              <mxPoint x="-740" y="270" />
              <mxPoint x="-740" y="180" />
              <mxPoint x="-1100" y="180" />
              <mxPoint x="-1100" y="110" />
            </Array>
          </mxGeometry>
        </mxCell>
        <mxCell id="Zlbz_0LO8d7bkOxlH6dM-136" style="edgeStyle=orthogonalEdgeStyle;rounded=0;orthogonalLoop=1;jettySize=auto;html=1;exitX=1;exitY=0.5;exitDx=0;exitDy=0;entryX=0;entryY=0.5;entryDx=0;entryDy=0;" parent="1" source="Zlbz_0LO8d7bkOxlH6dM-102" target="Zlbz_0LO8d7bkOxlH6dM-7" edge="1">
          <mxGeometry relative="1" as="geometry" />
        </mxCell>
        <mxCell id="Zlbz_0LO8d7bkOxlH6dM-138" style="edgeStyle=orthogonalEdgeStyle;rounded=0;orthogonalLoop=1;jettySize=auto;html=1;exitX=1;exitY=0.5;exitDx=0;exitDy=0;entryX=0;entryY=0.5;entryDx=0;entryDy=0;dashed=1;" parent="1" source="Zlbz_0LO8d7bkOxlH6dM-93" target="Zlbz_0LO8d7bkOxlH6dM-104" edge="1">
          <mxGeometry relative="1" as="geometry">
            <Array as="points">
              <mxPoint x="700" y="80" />
              <mxPoint x="700" y="-80" />
              <mxPoint x="-380" y="-80" />
              <mxPoint x="-380" y="-250" />
            </Array>
          </mxGeometry>
        </mxCell>
        <mxCell id="Zlbz_0LO8d7bkOxlH6dM-140" style="edgeStyle=orthogonalEdgeStyle;rounded=0;orthogonalLoop=1;jettySize=auto;html=1;exitX=1;exitY=0.5;exitDx=0;exitDy=0;entryX=0;entryY=0.5;entryDx=0;entryDy=0;" parent="1" source="Zlbz_0LO8d7bkOxlH6dM-26" target="Zlbz_0LO8d7bkOxlH6dM-6" edge="1">
          <mxGeometry relative="1" as="geometry">
            <Array as="points">
              <mxPoint x="340" y="270" />
              <mxPoint x="340" y="180" />
              <mxPoint x="-10" y="180" />
              <mxPoint x="-10" y="110" />
            </Array>
          </mxGeometry>
        </mxCell>
        <mxCell id="Zlbz_0LO8d7bkOxlH6dM-142" style="edgeStyle=orthogonalEdgeStyle;rounded=0;orthogonalLoop=1;jettySize=auto;html=1;exitX=1;exitY=0.5;exitDx=0;exitDy=0;entryX=0;entryY=0.5;entryDx=0;entryDy=0;dashed=1;" parent="1" source="Zlbz_0LO8d7bkOxlH6dM-53" target="Zlbz_0LO8d7bkOxlH6dM-59" edge="1">
          <mxGeometry relative="1" as="geometry">
            <Array as="points">
              <mxPoint x="-30" y="210" />
              <mxPoint x="-30" y="440" />
              <mxPoint x="-1100" y="440" />
              <mxPoint x="-1100" y="320" />
            </Array>
          </mxGeometry>
        </mxCell>
        <mxCell id="YiSwjyePHI6B1h6Bo6Bv-3" value="Legend" style="swimlane;whiteSpace=wrap;html=1;glass=0;" parent="1" vertex="1">
          <mxGeometry y="-320" width="680" height="220" as="geometry" />
        </mxCell>
        <mxCell id="YiSwjyePHI6B1h6Bo6Bv-4" value="Input" style="rounded=1;whiteSpace=wrap;html=1;" parent="YiSwjyePHI6B1h6Bo6Bv-3" vertex="1">
          <mxGeometry x="40" y="40" width="120" height="60" as="geometry" />
        </mxCell>
        <mxCell id="YiSwjyePHI6B1h6Bo6Bv-5" value="Common Input&lt;br&gt;(no process required)" style="rounded=1;whiteSpace=wrap;html=1;dashed=1;" parent="YiSwjyePHI6B1h6Bo6Bv-3" vertex="1">
          <mxGeometry x="40" y="140" width="120" height="60" as="geometry" />
        </mxCell>
        <mxCell id="YiSwjyePHI6B1h6Bo6Bv-6" value="Output" style="rounded=0;whiteSpace=wrap;html=1;" parent="YiSwjyePHI6B1h6Bo6Bv-3" vertex="1">
          <mxGeometry x="360" y="40" width="120" height="60" as="geometry" />
        </mxCell>
        <mxCell id="YiSwjyePHI6B1h6Bo6Bv-7" value="By-product" style="rounded=0;whiteSpace=wrap;html=1;dashed=1;" parent="YiSwjyePHI6B1h6Bo6Bv-3" vertex="1">
          <mxGeometry x="360" y="140" width="120" height="60" as="geometry" />
        </mxCell>
        <mxCell id="YiSwjyePHI6B1h6Bo6Bv-8" value="Goal" style="rounded=0;whiteSpace=wrap;html=1;shadow=0;glass=1;" parent="YiSwjyePHI6B1h6Bo6Bv-3" vertex="1">
          <mxGeometry x="520" y="40" width="120" height="60" as="geometry" />
        </mxCell>
        <mxCell id="YiSwjyePHI6B1h6Bo6Bv-59" value="Re-funded input" style="rounded=1;whiteSpace=wrap;html=1;sketch=1;curveFitting=1;jiggle=2;" parent="YiSwjyePHI6B1h6Bo6Bv-3" vertex="1">
          <mxGeometry x="200" y="40" width="120" height="60" as="geometry" />
        </mxCell>
        <mxCell id="YiSwjyePHI6B1h6Bo6Bv-23" style="edgeStyle=orthogonalEdgeStyle;rounded=0;orthogonalLoop=1;jettySize=auto;html=1;exitX=0;exitY=0.5;exitDx=0;exitDy=0;entryX=1;entryY=0.5;entryDx=0;entryDy=0;" parent="1" source="YiSwjyePHI6B1h6Bo6Bv-9" target="YiSwjyePHI6B1h6Bo6Bv-13" edge="1">
          <mxGeometry relative="1" as="geometry" />
        </mxCell>
        <mxCell id="YiSwjyePHI6B1h6Bo6Bv-51" value="Hydrofluoric&lt;br&gt;Acid" style="edgeLabel;html=1;align=center;verticalAlign=middle;resizable=0;points=[];" parent="YiSwjyePHI6B1h6Bo6Bv-23" vertex="1" connectable="0">
          <mxGeometry x="-0.15" y="-1" relative="1" as="geometry">
            <mxPoint x="-6" y="1" as="offset" />
          </mxGeometry>
        </mxCell>
        <mxCell id="YiSwjyePHI6B1h6Bo6Bv-9" value="Bubble Column Reactor" style="rhombus;whiteSpace=wrap;html=1;" parent="1" vertex="1">
          <mxGeometry x="-120" y="800" width="80" height="80" as="geometry" />
        </mxCell>
        <mxCell id="YiSwjyePHI6B1h6Bo6Bv-18" style="edgeStyle=orthogonalEdgeStyle;rounded=0;orthogonalLoop=1;jettySize=auto;html=1;exitX=1;exitY=0.5;exitDx=0;exitDy=0;entryX=0;entryY=0.5;entryDx=0;entryDy=0;" parent="1" source="YiSwjyePHI6B1h6Bo6Bv-10" target="YiSwjyePHI6B1h6Bo6Bv-11" edge="1">
          <mxGeometry relative="1" as="geometry" />
        </mxCell>
        <mxCell id="YiSwjyePHI6B1h6Bo6Bv-43" value="Impure&lt;br&gt;Aluminate&lt;br&gt;Solution" style="edgeLabel;html=1;align=center;verticalAlign=middle;resizable=0;points=[];" parent="YiSwjyePHI6B1h6Bo6Bv-18" vertex="1" connectable="0">
          <mxGeometry x="-0.2375" y="1" relative="1" as="geometry">
            <mxPoint x="9" y="1" as="offset" />
          </mxGeometry>
        </mxCell>
        <mxCell id="YiSwjyePHI6B1h6Bo6Bv-10" value="Roaster" style="rhombus;whiteSpace=wrap;html=1;" parent="1" vertex="1">
          <mxGeometry x="-760" y="640" width="80" height="80" as="geometry" />
        </mxCell>
        <mxCell id="YiSwjyePHI6B1h6Bo6Bv-19" style="edgeStyle=orthogonalEdgeStyle;rounded=0;orthogonalLoop=1;jettySize=auto;html=1;exitX=1;exitY=0.5;exitDx=0;exitDy=0;entryX=0;entryY=0.5;entryDx=0;entryDy=0;" parent="1" source="YiSwjyePHI6B1h6Bo6Bv-11" target="YiSwjyePHI6B1h6Bo6Bv-12" edge="1">
          <mxGeometry relative="1" as="geometry" />
        </mxCell>
        <mxCell id="YiSwjyePHI6B1h6Bo6Bv-44" value="Sodium&lt;br&gt;Aluminate&lt;br&gt;Solution" style="edgeLabel;html=1;align=center;verticalAlign=middle;resizable=0;points=[];" parent="YiSwjyePHI6B1h6Bo6Bv-19" vertex="1" connectable="0">
          <mxGeometry x="-0.1" y="7" relative="1" as="geometry">
            <mxPoint y="7" as="offset" />
          </mxGeometry>
        </mxCell>
        <mxCell id="YiSwjyePHI6B1h6Bo6Bv-11" value="Centrifuge" style="rhombus;whiteSpace=wrap;html=1;" parent="1" vertex="1">
          <mxGeometry x="-600" y="640" width="80" height="80" as="geometry" />
        </mxCell>
        <mxCell id="YiSwjyePHI6B1h6Bo6Bv-20" style="edgeStyle=orthogonalEdgeStyle;rounded=0;orthogonalLoop=1;jettySize=auto;html=1;exitX=1;exitY=0.5;exitDx=0;exitDy=0;entryX=0;entryY=0.5;entryDx=0;entryDy=0;" parent="1" source="YiSwjyePHI6B1h6Bo6Bv-12" target="YiSwjyePHI6B1h6Bo6Bv-14" edge="1">
          <mxGeometry relative="1" as="geometry" />
        </mxCell>
        <mxCell id="YiSwjyePHI6B1h6Bo6Bv-47" value="Aluminium&lt;br&gt;Hydroxide&lt;br&gt;Dust" style="edgeLabel;html=1;align=center;verticalAlign=middle;resizable=0;points=[];" parent="YiSwjyePHI6B1h6Bo6Bv-20" vertex="1" connectable="0">
          <mxGeometry x="-0.125" y="4" relative="1" as="geometry">
            <mxPoint x="5" y="4" as="offset" />
          </mxGeometry>
        </mxCell>
        <mxCell id="YiSwjyePHI6B1h6Bo6Bv-28" style="edgeStyle=orthogonalEdgeStyle;rounded=0;orthogonalLoop=1;jettySize=auto;html=1;exitX=0.5;exitY=1;exitDx=0;exitDy=0;entryX=1;entryY=0.5;entryDx=0;entryDy=0;dashed=1;" parent="1" source="YiSwjyePHI6B1h6Bo6Bv-12" target="YiSwjyePHI6B1h6Bo6Bv-16" edge="1">
          <mxGeometry relative="1" as="geometry" />
        </mxCell>
        <mxCell id="YiSwjyePHI6B1h6Bo6Bv-45" value="Impure&lt;br&gt;Sodium&lt;br&gt;Hydroxide&lt;br&gt;Solution" style="edgeLabel;html=1;align=center;verticalAlign=middle;resizable=0;points=[];" parent="YiSwjyePHI6B1h6Bo6Bv-28" vertex="1" connectable="0">
          <mxGeometry x="0.385" relative="1" as="geometry">
            <mxPoint x="-3" as="offset" />
          </mxGeometry>
        </mxCell>
        <mxCell id="YiSwjyePHI6B1h6Bo6Bv-12" value="Crystallizer" style="rhombus;whiteSpace=wrap;html=1;" parent="1" vertex="1">
          <mxGeometry x="-440" y="640" width="80" height="80" as="geometry" />
        </mxCell>
        <mxCell id="YiSwjyePHI6B1h6Bo6Bv-31" style="rounded=0;orthogonalLoop=1;jettySize=auto;html=1;exitX=1;exitY=0;exitDx=0;exitDy=0;" parent="1" source="YiSwjyePHI6B1h6Bo6Bv-13" target="YiSwjyePHI6B1h6Bo6Bv-15" edge="1">
          <mxGeometry relative="1" as="geometry" />
        </mxCell>
        <mxCell id="YiSwjyePHI6B1h6Bo6Bv-50" value="Aluminium&lt;br&gt;Trifluoride&lt;br&gt;Dust" style="edgeLabel;html=1;align=center;verticalAlign=middle;resizable=0;points=[];" parent="YiSwjyePHI6B1h6Bo6Bv-31" vertex="1" connectable="0">
          <mxGeometry x="-0.025" y="5" relative="1" as="geometry">
            <mxPoint x="5" as="offset" />
          </mxGeometry>
        </mxCell>
        <mxCell id="YiSwjyePHI6B1h6Bo6Bv-13" value="Roaster" style="rhombus;whiteSpace=wrap;html=1;" parent="1" vertex="1">
          <mxGeometry x="-280" y="800" width="80" height="80" as="geometry" />
        </mxCell>
        <mxCell id="YiSwjyePHI6B1h6Bo6Bv-21" style="edgeStyle=orthogonalEdgeStyle;rounded=0;orthogonalLoop=1;jettySize=auto;html=1;exitX=1;exitY=0.5;exitDx=0;exitDy=0;entryX=0;entryY=0.5;entryDx=0;entryDy=0;" parent="1" source="YiSwjyePHI6B1h6Bo6Bv-14" target="YiSwjyePHI6B1h6Bo6Bv-15" edge="1">
          <mxGeometry relative="1" as="geometry" />
        </mxCell>
        <mxCell id="YiSwjyePHI6B1h6Bo6Bv-29" style="edgeStyle=orthogonalEdgeStyle;rounded=0;orthogonalLoop=1;jettySize=auto;html=1;exitX=0.5;exitY=1;exitDx=0;exitDy=0;" parent="1" source="YiSwjyePHI6B1h6Bo6Bv-14" target="YiSwjyePHI6B1h6Bo6Bv-13" edge="1">
          <mxGeometry relative="1" as="geometry" />
        </mxCell>
        <mxCell id="YiSwjyePHI6B1h6Bo6Bv-48" value="Alumina&lt;br&gt;Dust" style="edgeLabel;html=1;align=center;verticalAlign=middle;resizable=0;points=[];" parent="YiSwjyePHI6B1h6Bo6Bv-29" vertex="1" connectable="0">
          <mxGeometry x="-0.05" y="2" relative="1" as="geometry">
            <mxPoint x="-2" as="offset" />
          </mxGeometry>
        </mxCell>
        <mxCell id="YiSwjyePHI6B1h6Bo6Bv-14" value="EBF" style="rhombus;whiteSpace=wrap;html=1;" parent="1" vertex="1">
          <mxGeometry x="-280" y="640" width="80" height="80" as="geometry" />
        </mxCell>
        <mxCell id="YiSwjyePHI6B1h6Bo6Bv-33" style="edgeStyle=orthogonalEdgeStyle;rounded=0;orthogonalLoop=1;jettySize=auto;html=1;exitX=1;exitY=0.5;exitDx=0;exitDy=0;entryX=0;entryY=0.5;entryDx=0;entryDy=0;" parent="1" source="YiSwjyePHI6B1h6Bo6Bv-15" target="YiSwjyePHI6B1h6Bo6Bv-32" edge="1">
          <mxGeometry relative="1" as="geometry" />
        </mxCell>
        <mxCell id="YiSwjyePHI6B1h6Bo6Bv-54" style="edgeStyle=orthogonalEdgeStyle;rounded=0;orthogonalLoop=1;jettySize=auto;html=1;exitX=0.5;exitY=1;exitDx=0;exitDy=0;dashed=1;" parent="1" source="YiSwjyePHI6B1h6Bo6Bv-15" target="YiSwjyePHI6B1h6Bo6Bv-9" edge="1">
          <mxGeometry relative="1" as="geometry" />
        </mxCell>
        <mxCell id="YiSwjyePHI6B1h6Bo6Bv-55" value="Hydrogen&lt;br&gt;Fluoride" style="edgeLabel;html=1;align=center;verticalAlign=middle;resizable=0;points=[];" parent="YiSwjyePHI6B1h6Bo6Bv-54" vertex="1" connectable="0">
          <mxGeometry x="-0.025" y="-1" relative="1" as="geometry">
            <mxPoint x="1" y="1" as="offset" />
          </mxGeometry>
        </mxCell>
        <mxCell id="YiSwjyePHI6B1h6Bo6Bv-15" value="Advanced Electrolysis" style="rhombus;whiteSpace=wrap;html=1;" parent="1" vertex="1">
          <mxGeometry x="-120" y="640" width="80" height="80" as="geometry" />
        </mxCell>
        <mxCell id="YiSwjyePHI6B1h6Bo6Bv-36" style="edgeStyle=orthogonalEdgeStyle;rounded=0;orthogonalLoop=1;jettySize=auto;html=1;exitX=0.5;exitY=0;exitDx=0;exitDy=0;" parent="1" source="YiSwjyePHI6B1h6Bo6Bv-16" target="YiSwjyePHI6B1h6Bo6Bv-10" edge="1">
          <mxGeometry relative="1" as="geometry" />
        </mxCell>
        <mxCell id="YiSwjyePHI6B1h6Bo6Bv-46" value="Sodium&lt;br&gt;Hydroxide&lt;br&gt;Solution" style="edgeLabel;html=1;align=center;verticalAlign=middle;resizable=0;points=[];" parent="YiSwjyePHI6B1h6Bo6Bv-36" vertex="1" connectable="0">
          <mxGeometry x="0.1" y="4" relative="1" as="geometry">
            <mxPoint x="4" y="4" as="offset" />
          </mxGeometry>
        </mxCell>
        <mxCell id="YiSwjyePHI6B1h6Bo6Bv-16" value="Electrolyzer" style="rhombus;whiteSpace=wrap;html=1;" parent="1" vertex="1">
          <mxGeometry x="-760" y="800" width="80" height="80" as="geometry" />
        </mxCell>
        <mxCell id="YiSwjyePHI6B1h6Bo6Bv-32" value="Aluminium" style="ellipse;whiteSpace=wrap;html=1;aspect=fixed;shadow=0;sketch=1;curveFitting=1;jiggle=2;" parent="1" vertex="1">
          <mxGeometry x="40" y="640" width="80" height="80" as="geometry" />
        </mxCell>
        <mxCell id="YiSwjyePHI6B1h6Bo6Bv-42" style="edgeStyle=orthogonalEdgeStyle;rounded=0;orthogonalLoop=1;jettySize=auto;html=1;exitX=0;exitY=0.5;exitDx=0;exitDy=0;entryX=1;entryY=0.5;entryDx=0;entryDy=0;" parent="1" source="YiSwjyePHI6B1h6Bo6Bv-34" target="YiSwjyePHI6B1h6Bo6Bv-9" edge="1">
          <mxGeometry relative="1" as="geometry" />
        </mxCell>
        <mxCell id="YiSwjyePHI6B1h6Bo6Bv-34" value="Water" style="whiteSpace=wrap;html=1;aspect=fixed;dashed=1;" parent="1" vertex="1">
          <mxGeometry x="40" y="800" width="80" height="80" as="geometry" />
        </mxCell>
        <mxCell id="YiSwjyePHI6B1h6Bo6Bv-56" style="edgeStyle=orthogonalEdgeStyle;rounded=0;orthogonalLoop=1;jettySize=auto;html=1;exitX=0.5;exitY=1;exitDx=0;exitDy=0;" parent="1" source="YiSwjyePHI6B1h6Bo6Bv-35" target="YiSwjyePHI6B1h6Bo6Bv-10" edge="1">
          <mxGeometry relative="1" as="geometry" />
        </mxCell>
        <mxCell id="YiSwjyePHI6B1h6Bo6Bv-35" value="Bauxite" style="whiteSpace=wrap;html=1;aspect=fixed;dashed=1;" parent="1" vertex="1">
          <mxGeometry x="-760" y="480" width="80" height="80" as="geometry" />
        </mxCell>
        <mxCell id="YiSwjyePHI6B1h6Bo6Bv-41" style="edgeStyle=orthogonalEdgeStyle;rounded=0;orthogonalLoop=1;jettySize=auto;html=1;exitX=0.5;exitY=1;exitDx=0;exitDy=0;entryX=0.5;entryY=0;entryDx=0;entryDy=0;" parent="1" source="YiSwjyePHI6B1h6Bo6Bv-39" target="YiSwjyePHI6B1h6Bo6Bv-12" edge="1">
          <mxGeometry relative="1" as="geometry" />
        </mxCell>
        <mxCell id="YiSwjyePHI6B1h6Bo6Bv-39" value="Water" style="whiteSpace=wrap;html=1;aspect=fixed;dashed=1;" parent="1" vertex="1">
          <mxGeometry x="-440" y="480" width="80" height="80" as="geometry" />
        </mxCell>
        <mxCell id="YiSwjyePHI6B1h6Bo6Bv-49" value="Alumina&lt;br&gt;Dust" style="edgeLabel;html=1;align=center;verticalAlign=middle;resizable=0;points=[];" parent="1" vertex="1" connectable="0">
          <mxGeometry x="-160" y="680" as="geometry" />
        </mxCell>
        <mxCell id="YiSwjyePHI6B1h6Bo6Bv-58" style="edgeStyle=orthogonalEdgeStyle;rounded=0;orthogonalLoop=1;jettySize=auto;html=1;exitX=0.5;exitY=1;exitDx=0;exitDy=0;entryX=0.5;entryY=0;entryDx=0;entryDy=0;" parent="1" source="YiSwjyePHI6B1h6Bo6Bv-57" target="YiSwjyePHI6B1h6Bo6Bv-15" edge="1">
          <mxGeometry relative="1" as="geometry" />
        </mxCell>
        <mxCell id="YiSwjyePHI6B1h6Bo6Bv-57" value="Coke Dust" style="whiteSpace=wrap;html=1;aspect=fixed;dashed=1;" parent="1" vertex="1">
          <mxGeometry x="-120" y="480" width="80" height="80" as="geometry" />
        </mxCell>
        <mxCell id="YiSwjyePHI6B1h6Bo6Bv-76" value="" style="swimlane;startSize=0;" parent="1" vertex="1">
          <mxGeometry x="-1440" y="480" width="600" height="600" as="geometry" />
        </mxCell>
        <mxCell id="YiSwjyePHI6B1h6Bo6Bv-79" value="Entrance" style="whiteSpace=wrap;html=1;" parent="YiSwjyePHI6B1h6Bo6Bv-76" vertex="1">
          <mxGeometry x="-40" y="240" width="80" height="120" as="geometry" />
        </mxCell>
        <mxCell id="YiSwjyePHI6B1h6Bo6Bv-73" value="Baux" style="whiteSpace=wrap;html=1;aspect=fixed;" parent="YiSwjyePHI6B1h6Bo6Bv-76" vertex="1">
          <mxGeometry x="160" y="240" width="40" height="40" as="geometry" />
        </mxCell>
        <mxCell id="YiSwjyePHI6B1h6Bo6Bv-72" value="Roast" style="whiteSpace=wrap;html=1;aspect=fixed;" parent="YiSwjyePHI6B1h6Bo6Bv-76" vertex="1">
          <mxGeometry x="160" y="200" width="40" height="40" as="geometry" />
        </mxCell>
        <mxCell id="YiSwjyePHI6B1h6Bo6Bv-74" value="Coke" style="whiteSpace=wrap;html=1;aspect=fixed;" parent="YiSwjyePHI6B1h6Bo6Bv-76" vertex="1">
          <mxGeometry x="480" y="240" width="40" height="40" as="geometry" />
        </mxCell>
        <mxCell id="YiSwjyePHI6B1h6Bo6Bv-65" value="Centr" style="whiteSpace=wrap;html=1;aspect=fixed;" parent="YiSwjyePHI6B1h6Bo6Bv-76" vertex="1">
          <mxGeometry x="200" y="200" width="40" height="40" as="geometry" />
        </mxCell>
        <mxCell id="YiSwjyePHI6B1h6Bo6Bv-66" value="Cryst" style="whiteSpace=wrap;html=1;aspect=fixed;" parent="YiSwjyePHI6B1h6Bo6Bv-76" vertex="1">
          <mxGeometry x="200" y="160" width="40" height="40" as="geometry" />
        </mxCell>
        <mxCell id="YiSwjyePHI6B1h6Bo6Bv-64" value="Roas" style="whiteSpace=wrap;html=1;aspect=fixed;" parent="YiSwjyePHI6B1h6Bo6Bv-76" vertex="1">
          <mxGeometry x="360" y="120" width="40" height="40" as="geometry" />
        </mxCell>
        <mxCell id="YiSwjyePHI6B1h6Bo6Bv-71" value="Water Pump" style="rounded=0;whiteSpace=wrap;html=1;" parent="YiSwjyePHI6B1h6Bo6Bv-76" vertex="1">
          <mxGeometry x="200" y="40" width="160" height="120" as="geometry" />
        </mxCell>
        <mxCell id="YiSwjyePHI6B1h6Bo6Bv-92" style="edgeStyle=orthogonalEdgeStyle;rounded=0;orthogonalLoop=1;jettySize=auto;html=1;exitX=1;exitY=0.25;exitDx=0;exitDy=0;entryX=0.5;entryY=1;entryDx=0;entryDy=0;opacity=50;" parent="YiSwjyePHI6B1h6Bo6Bv-76" source="YiSwjyePHI6B1h6Bo6Bv-60" target="YiSwjyePHI6B1h6Bo6Bv-64" edge="1">
          <mxGeometry relative="1" as="geometry" />
        </mxCell>
        <mxCell id="YiSwjyePHI6B1h6Bo6Bv-93" style="edgeStyle=orthogonalEdgeStyle;rounded=0;orthogonalLoop=1;jettySize=auto;html=1;exitX=1;exitY=0.25;exitDx=0;exitDy=0;entryX=0;entryY=0.75;entryDx=0;entryDy=0;opacity=50;" parent="YiSwjyePHI6B1h6Bo6Bv-76" source="YiSwjyePHI6B1h6Bo6Bv-60" target="YiSwjyePHI6B1h6Bo6Bv-63" edge="1">
          <mxGeometry relative="1" as="geometry" />
        </mxCell>
        <mxCell id="YiSwjyePHI6B1h6Bo6Bv-60" value="EBF" style="whiteSpace=wrap;html=1;aspect=fixed;" parent="YiSwjyePHI6B1h6Bo6Bv-76" vertex="1">
          <mxGeometry x="240" y="160" width="120" height="120" as="geometry" />
        </mxCell>
        <mxCell id="YiSwjyePHI6B1h6Bo6Bv-63" value="Advanced Electrolysis" style="rounded=0;whiteSpace=wrap;html=1;" parent="YiSwjyePHI6B1h6Bo6Bv-76" vertex="1">
          <mxGeometry x="400" y="40" width="160" height="200" as="geometry" />
        </mxCell>
        <mxCell id="YiSwjyePHI6B1h6Bo6Bv-75" value="Al" style="whiteSpace=wrap;html=1;aspect=fixed;" parent="YiSwjyePHI6B1h6Bo6Bv-76" vertex="1">
          <mxGeometry x="520" y="240" width="40" height="40" as="geometry" />
        </mxCell>
        <mxCell id="YiSwjyePHI6B1h6Bo6Bv-67" value="Bubble" style="whiteSpace=wrap;html=1;aspect=fixed;" parent="YiSwjyePHI6B1h6Bo6Bv-76" vertex="1">
          <mxGeometry x="360" y="80" width="40" height="40" as="geometry" />
        </mxCell>
        <mxCell id="YiSwjyePHI6B1h6Bo6Bv-68" value="Elect" style="whiteSpace=wrap;html=1;aspect=fixed;" parent="YiSwjyePHI6B1h6Bo6Bv-76" vertex="1">
          <mxGeometry x="160" y="160" width="40" height="40" as="geometry" />
        </mxCell>
        <mxCell id="Ou3ePZz4okydDDDF1puV-4" value="" style="endArrow=classic;html=1;rounded=0;fontSize=12;curved=1;startSize=8;endSize=8;opacity=50;" parent="YiSwjyePHI6B1h6Bo6Bv-76" edge="1">
          <mxGeometry width="50" height="50" relative="1" as="geometry">
            <mxPoint x="219.5" y="180" as="sourcePoint" />
            <mxPoint x="219.5" y="220" as="targetPoint" />
          </mxGeometry>
        </mxCell>
        <mxCell id="Ou3ePZz4okydDDDF1puV-8" value="" style="endArrow=classic;html=1;rounded=0;fontSize=12;curved=1;startSize=8;endSize=8;opacity=50;" parent="YiSwjyePHI6B1h6Bo6Bv-76" edge="1">
          <mxGeometry width="50" height="50" relative="1" as="geometry">
            <mxPoint x="220" y="179.71000000000004" as="sourcePoint" />
            <mxPoint x="260" y="179.71000000000004" as="targetPoint" />
          </mxGeometry>
        </mxCell>
        <mxCell id="Ou3ePZz4okydDDDF1puV-9" value="" style="endArrow=classic;html=1;rounded=0;fontSize=12;curved=1;startSize=8;endSize=8;opacity=50;" parent="YiSwjyePHI6B1h6Bo6Bv-76" edge="1">
          <mxGeometry width="50" height="50" relative="1" as="geometry">
            <mxPoint x="219.70999999999998" y="140" as="sourcePoint" />
            <mxPoint x="219.70999999999998" y="180" as="targetPoint" />
          </mxGeometry>
        </mxCell>
        <mxCell id="Ou3ePZz4okydDDDF1puV-10" value="" style="endArrow=classic;html=1;rounded=0;fontSize=12;curved=1;startSize=8;endSize=8;opacity=50;" parent="YiSwjyePHI6B1h6Bo6Bv-76" edge="1">
          <mxGeometry width="50" height="50" relative="1" as="geometry">
            <mxPoint x="180" y="179.71000000000004" as="sourcePoint" />
            <mxPoint x="220" y="179.71000000000004" as="targetPoint" />
          </mxGeometry>
        </mxCell>
        <mxCell id="Ou3ePZz4okydDDDF1puV-11" value="" style="endArrow=classic;html=1;rounded=0;fontSize=12;curved=1;startSize=8;endSize=8;opacity=50;" parent="YiSwjyePHI6B1h6Bo6Bv-76" edge="1">
          <mxGeometry width="50" height="50" relative="1" as="geometry">
            <mxPoint x="220" y="219.71000000000004" as="sourcePoint" />
            <mxPoint x="180" y="219.71000000000004" as="targetPoint" />
          </mxGeometry>
        </mxCell>
        <mxCell id="Ou3ePZz4okydDDDF1puV-12" value="" style="endArrow=classic;html=1;rounded=0;fontSize=12;curved=1;startSize=8;endSize=8;opacity=50;" parent="YiSwjyePHI6B1h6Bo6Bv-76" edge="1">
          <mxGeometry width="50" height="50" relative="1" as="geometry">
            <mxPoint x="179.70999999999998" y="260" as="sourcePoint" />
            <mxPoint x="179.70999999999998" y="220" as="targetPoint" />
          </mxGeometry>
        </mxCell>
        <mxCell id="Ou3ePZz4okydDDDF1puV-13" value="" style="endArrow=classic;html=1;rounded=0;fontSize=12;curved=1;startSize=8;endSize=8;opacity=50;" parent="YiSwjyePHI6B1h6Bo6Bv-76" edge="1">
          <mxGeometry width="50" height="50" relative="1" as="geometry">
            <mxPoint x="179.70999999999998" y="220" as="sourcePoint" />
            <mxPoint x="179.70999999999998" y="180" as="targetPoint" />
          </mxGeometry>
        </mxCell>
        <mxCell id="Ou3ePZz4okydDDDF1puV-14" value="" style="endArrow=classic;html=1;rounded=0;fontSize=12;curved=1;startSize=8;endSize=8;opacity=50;" parent="YiSwjyePHI6B1h6Bo6Bv-76" edge="1">
          <mxGeometry width="50" height="50" relative="1" as="geometry">
            <mxPoint x="340" y="99.71000000000004" as="sourcePoint" />
            <mxPoint x="380" y="99.71000000000004" as="targetPoint" />
          </mxGeometry>
        </mxCell>
        <mxCell id="Ou3ePZz4okydDDDF1puV-15" value="" style="endArrow=classic;html=1;rounded=0;fontSize=12;curved=1;startSize=8;endSize=8;opacity=50;" parent="YiSwjyePHI6B1h6Bo6Bv-76" edge="1">
          <mxGeometry width="50" height="50" relative="1" as="geometry">
            <mxPoint x="380" y="139.71000000000004" as="sourcePoint" />
            <mxPoint x="420" y="139.71000000000004" as="targetPoint" />
          </mxGeometry>
        </mxCell>
        <mxCell id="Ou3ePZz4okydDDDF1puV-16" value="" style="endArrow=classic;html=1;rounded=0;fontSize=12;curved=1;startSize=8;endSize=8;opacity=50;" parent="YiSwjyePHI6B1h6Bo6Bv-76" edge="1">
          <mxGeometry width="50" height="50" relative="1" as="geometry">
            <mxPoint x="539.71" y="220" as="sourcePoint" />
            <mxPoint x="539.71" y="260" as="targetPoint" />
          </mxGeometry>
        </mxCell>
        <mxCell id="Ou3ePZz4okydDDDF1puV-17" value="" style="endArrow=classic;html=1;rounded=0;fontSize=12;curved=1;startSize=8;endSize=8;opacity=50;" parent="YiSwjyePHI6B1h6Bo6Bv-76" edge="1">
          <mxGeometry width="50" height="50" relative="1" as="geometry">
            <mxPoint x="499.71000000000004" y="260" as="sourcePoint" />
            <mxPoint x="499.71000000000004" y="220" as="targetPoint" />
          </mxGeometry>
        </mxCell>
        <mxCell id="Ou3ePZz4okydDDDF1puV-19" value="" style="endArrow=classic;html=1;rounded=0;fontSize=12;curved=1;startSize=8;endSize=8;opacity=50;" parent="YiSwjyePHI6B1h6Bo6Bv-76" edge="1">
          <mxGeometry width="50" height="50" relative="1" as="geometry">
            <mxPoint x="420" y="99.71000000000004" as="sourcePoint" />
            <mxPoint x="380" y="99.71000000000004" as="targetPoint" />
          </mxGeometry>
        </mxCell>
        <mxCell id="Ou3ePZz4okydDDDF1puV-20" value="" style="endArrow=classic;html=1;rounded=0;fontSize=12;curved=1;startSize=8;endSize=8;opacity=50;" parent="YiSwjyePHI6B1h6Bo6Bv-76" edge="1">
          <mxGeometry width="50" height="50" relative="1" as="geometry">
            <mxPoint x="379.71" y="100" as="sourcePoint" />
            <mxPoint x="379.71" y="140" as="targetPoint" />
          </mxGeometry>
        </mxCell>
        <mxCell id="Zlbz_0LO8d7bkOxlH6dM-120" value="Mixer" style="swimlane;whiteSpace=wrap;html=1;dashed=1;dashPattern=1 4;" parent="1" vertex="1">
          <mxGeometry x="-1080" y="-320" width="320" height="220" as="geometry" />
        </mxCell>
        <mxCell id="Zlbz_0LO8d7bkOxlH6dM-122" value="1kL Sulfuric Acid" style="rounded=0;whiteSpace=wrap;html=1;" parent="Zlbz_0LO8d7bkOxlH6dM-120" vertex="1">
          <mxGeometry x="183" y="90" width="120" height="60" as="geometry" />
        </mxCell>
        <mxCell id="Zlbz_0LO8d7bkOxlH6dM-125" style="edgeStyle=orthogonalEdgeStyle;rounded=0;orthogonalLoop=1;jettySize=auto;html=1;exitX=1;exitY=0.5;exitDx=0;exitDy=0;entryX=0;entryY=0.5;entryDx=0;entryDy=0;" parent="Zlbz_0LO8d7bkOxlH6dM-120" source="Zlbz_0LO8d7bkOxlH6dM-124" target="Zlbz_0LO8d7bkOxlH6dM-122" edge="1">
          <mxGeometry relative="1" as="geometry" />
        </mxCell>
        <mxCell id="Zlbz_0LO8d7bkOxlH6dM-124" value="1kL Water" style="rounded=1;whiteSpace=wrap;html=1;" parent="Zlbz_0LO8d7bkOxlH6dM-120" vertex="1">
          <mxGeometry x="20" y="40" width="120" height="60" as="geometry" />
        </mxCell>
        <mxCell id="Zlbz_0LO8d7bkOxlH6dM-126" style="edgeStyle=orthogonalEdgeStyle;rounded=0;orthogonalLoop=1;jettySize=auto;html=1;exitX=1;exitY=0.5;exitDx=0;exitDy=0;entryX=0;entryY=0.5;entryDx=0;entryDy=0;" parent="Zlbz_0LO8d7bkOxlH6dM-120" source="Zlbz_0LO8d7bkOxlH6dM-123" target="Zlbz_0LO8d7bkOxlH6dM-122" edge="1">
          <mxGeometry relative="1" as="geometry" />
        </mxCell>
        <mxCell id="Zlbz_0LO8d7bkOxlH6dM-123" value="1kL Sulfur Trioxide" style="rounded=1;whiteSpace=wrap;html=1;" parent="Zlbz_0LO8d7bkOxlH6dM-120" vertex="1">
          <mxGeometry x="20" y="140" width="120" height="60" as="geometry" />
        </mxCell>
        <mxCell id="Zlbz_0LO8d7bkOxlH6dM-121" value="Roasting" style="swimlane;whiteSpace=wrap;html=1;dashed=1;dashPattern=1 4;" parent="1" vertex="1">
          <mxGeometry x="-1440" y="-320" width="320" height="220" as="geometry" />
        </mxCell>
        <mxCell id="Zlbz_0LO8d7bkOxlH6dM-133" style="edgeStyle=orthogonalEdgeStyle;rounded=0;orthogonalLoop=1;jettySize=auto;html=1;exitX=1;exitY=0.5;exitDx=0;exitDy=0;entryX=0;entryY=0.5;entryDx=0;entryDy=0;" parent="Zlbz_0LO8d7bkOxlH6dM-121" source="Zlbz_0LO8d7bkOxlH6dM-131" target="Zlbz_0LO8d7bkOxlH6dM-128" edge="1">
          <mxGeometry relative="1" as="geometry" />
        </mxCell>
        <mxCell id="Zlbz_0LO8d7bkOxlH6dM-131" value="Iron III Sulfate Dust" style="rounded=1;whiteSpace=wrap;html=1;dashed=1;" parent="Zlbz_0LO8d7bkOxlH6dM-121" vertex="1">
          <mxGeometry x="20" y="90" width="120" height="60" as="geometry" />
        </mxCell>
        <mxCell id="Zlbz_0LO8d7bkOxlH6dM-128" value="Banded Iron Dust" style="rounded=0;whiteSpace=wrap;html=1;dashed=1;" parent="Zlbz_0LO8d7bkOxlH6dM-121" vertex="1">
          <mxGeometry x="180" y="40" width="120" height="60" as="geometry" />
        </mxCell>
        <mxCell id="Zlbz_0LO8d7bkOxlH6dM-129" value="3kL Sulfur Trioxide" style="rounded=0;whiteSpace=wrap;html=1;" parent="Zlbz_0LO8d7bkOxlH6dM-121" vertex="1">
          <mxGeometry x="180" y="140" width="120" height="60" as="geometry" />
        </mxCell>
        <mxCell id="Zlbz_0LO8d7bkOxlH6dM-132" style="edgeStyle=orthogonalEdgeStyle;rounded=0;orthogonalLoop=1;jettySize=auto;html=1;exitX=1;exitY=0.5;exitDx=0;exitDy=0;entryX=0;entryY=0.5;entryDx=0;entryDy=0;" parent="Zlbz_0LO8d7bkOxlH6dM-121" source="Zlbz_0LO8d7bkOxlH6dM-131" target="Zlbz_0LO8d7bkOxlH6dM-129" edge="1">
          <mxGeometry relative="1" as="geometry" />
        </mxCell>
        <mxCell id="Zlbz_0LO8d7bkOxlH6dM-134" style="edgeStyle=orthogonalEdgeStyle;rounded=0;orthogonalLoop=1;jettySize=auto;html=1;exitX=1;exitY=0.5;exitDx=0;exitDy=0;entryX=0;entryY=0.5;entryDx=0;entryDy=0;" parent="1" source="Zlbz_0LO8d7bkOxlH6dM-129" target="Zlbz_0LO8d7bkOxlH6dM-123" edge="1">
          <mxGeometry relative="1" as="geometry" />
        </mxCell>
        <mxCell id="Zlbz_0LO8d7bkOxlH6dM-108" value="Batch Reactor&amp;nbsp;(needs to be done only once)" style="swimlane;whiteSpace=wrap;html=1;dashed=1;dashPattern=1 4;" parent="1" vertex="1">
          <mxGeometry x="-720" y="-320" width="320" height="220" as="geometry" />
        </mxCell>
        <mxCell id="Zlbz_0LO8d7bkOxlH6dM-109" value="2kL Hydrogen Fluoride" style="rounded=0;whiteSpace=wrap;html=1;" parent="Zlbz_0LO8d7bkOxlH6dM-108" vertex="1">
          <mxGeometry x="180" y="40" width="120" height="60" as="geometry" />
        </mxCell>
        <mxCell id="Zlbz_0LO8d7bkOxlH6dM-115" style="edgeStyle=orthogonalEdgeStyle;rounded=0;orthogonalLoop=1;jettySize=auto;html=1;exitX=1;exitY=0.5;exitDx=0;exitDy=0;entryX=0;entryY=0.5;entryDx=0;entryDy=0;" parent="Zlbz_0LO8d7bkOxlH6dM-108" source="Zlbz_0LO8d7bkOxlH6dM-112" target="Zlbz_0LO8d7bkOxlH6dM-109" edge="1">
          <mxGeometry relative="1" as="geometry" />
        </mxCell>
        <mxCell id="Zlbz_0LO8d7bkOxlH6dM-118" style="edgeStyle=orthogonalEdgeStyle;rounded=0;orthogonalLoop=1;jettySize=auto;html=1;exitX=1;exitY=0.5;exitDx=0;exitDy=0;entryX=0;entryY=0.5;entryDx=0;entryDy=0;" parent="Zlbz_0LO8d7bkOxlH6dM-108" source="Zlbz_0LO8d7bkOxlH6dM-112" target="Zlbz_0LO8d7bkOxlH6dM-113" edge="1">
          <mxGeometry relative="1" as="geometry" />
        </mxCell>
        <mxCell id="Zlbz_0LO8d7bkOxlH6dM-112" value="3 Fluorite Dust" style="rounded=1;whiteSpace=wrap;html=1;dashed=1;" parent="Zlbz_0LO8d7bkOxlH6dM-108" vertex="1">
          <mxGeometry x="20" y="40" width="120" height="60" as="geometry" />
        </mxCell>
        <mxCell id="Zlbz_0LO8d7bkOxlH6dM-116" style="edgeStyle=orthogonalEdgeStyle;rounded=0;orthogonalLoop=1;jettySize=auto;html=1;exitX=1;exitY=0.5;exitDx=0;exitDy=0;entryX=0;entryY=0.5;entryDx=0;entryDy=0;" parent="Zlbz_0LO8d7bkOxlH6dM-108" source="Zlbz_0LO8d7bkOxlH6dM-111" target="Zlbz_0LO8d7bkOxlH6dM-113" edge="1">
          <mxGeometry relative="1" as="geometry" />
        </mxCell>
        <mxCell id="Zlbz_0LO8d7bkOxlH6dM-119" style="edgeStyle=orthogonalEdgeStyle;rounded=0;orthogonalLoop=1;jettySize=auto;html=1;exitX=1;exitY=0.5;exitDx=0;exitDy=0;entryX=0;entryY=0.5;entryDx=0;entryDy=0;" parent="Zlbz_0LO8d7bkOxlH6dM-108" source="Zlbz_0LO8d7bkOxlH6dM-111" target="Zlbz_0LO8d7bkOxlH6dM-109" edge="1">
          <mxGeometry relative="1" as="geometry" />
        </mxCell>
        <mxCell id="Zlbz_0LO8d7bkOxlH6dM-111" value="1kL Sulfuric Acid" style="rounded=1;whiteSpace=wrap;html=1;" parent="Zlbz_0LO8d7bkOxlH6dM-108" vertex="1">
          <mxGeometry x="20" y="140" width="120" height="60" as="geometry" />
        </mxCell>
        <mxCell id="Zlbz_0LO8d7bkOxlH6dM-113" value="6 Calcium Sulfate Dust" style="rounded=0;whiteSpace=wrap;html=1;dashed=1;" parent="Zlbz_0LO8d7bkOxlH6dM-108" vertex="1">
          <mxGeometry x="180" y="140" width="120" height="60" as="geometry" />
        </mxCell>
        <mxCell id="Zlbz_0LO8d7bkOxlH6dM-127" style="edgeStyle=orthogonalEdgeStyle;rounded=0;orthogonalLoop=1;jettySize=auto;html=1;exitX=1;exitY=0.5;exitDx=0;exitDy=0;entryX=0;entryY=0.5;entryDx=0;entryDy=0;" parent="1" source="Zlbz_0LO8d7bkOxlH6dM-122" target="Zlbz_0LO8d7bkOxlH6dM-111" edge="1">
          <mxGeometry relative="1" as="geometry" />
        </mxCell>
        <mxCell id="Zlbz_0LO8d7bkOxlH6dM-101" value="Bubble Column Reactor" style="swimlane;whiteSpace=wrap;html=1;" parent="1" vertex="1">
          <mxGeometry x="-360" y="-320" width="320" height="220" as="geometry" />
        </mxCell>
        <mxCell id="Zlbz_0LO8d7bkOxlH6dM-102" value="50L Hydrofluoric Acid" style="rounded=0;whiteSpace=wrap;html=1;" parent="Zlbz_0LO8d7bkOxlH6dM-101" vertex="1">
          <mxGeometry x="180" y="90" width="120" height="60" as="geometry" />
        </mxCell>
        <mxCell id="Zlbz_0LO8d7bkOxlH6dM-105" style="edgeStyle=orthogonalEdgeStyle;rounded=0;orthogonalLoop=1;jettySize=auto;html=1;exitX=1;exitY=0.5;exitDx=0;exitDy=0;entryX=0;entryY=0.5;entryDx=0;entryDy=0;" parent="Zlbz_0LO8d7bkOxlH6dM-101" source="Zlbz_0LO8d7bkOxlH6dM-104" target="Zlbz_0LO8d7bkOxlH6dM-102" edge="1">
          <mxGeometry relative="1" as="geometry" />
        </mxCell>
        <mxCell id="Zlbz_0LO8d7bkOxlH6dM-104" value="50L Hydrogen Fluoride" style="rounded=1;whiteSpace=wrap;html=1;gradientColor=none;sketch=1;curveFitting=1;jiggle=2;" parent="Zlbz_0LO8d7bkOxlH6dM-101" vertex="1">
          <mxGeometry x="20" y="40" width="120" height="60" as="geometry" />
        </mxCell>
        <mxCell id="Zlbz_0LO8d7bkOxlH6dM-106" style="edgeStyle=orthogonalEdgeStyle;rounded=0;orthogonalLoop=1;jettySize=auto;html=1;exitX=1;exitY=0.5;exitDx=0;exitDy=0;entryX=0;entryY=0.5;entryDx=0;entryDy=0;" parent="Zlbz_0LO8d7bkOxlH6dM-101" source="Zlbz_0LO8d7bkOxlH6dM-103" target="Zlbz_0LO8d7bkOxlH6dM-102" edge="1">
          <mxGeometry relative="1" as="geometry" />
        </mxCell>
        <mxCell id="Zlbz_0LO8d7bkOxlH6dM-103" value="50L Water" style="rounded=1;whiteSpace=wrap;html=1;dashed=1;" parent="Zlbz_0LO8d7bkOxlH6dM-101" vertex="1">
          <mxGeometry x="20" y="140" width="120" height="60" as="geometry" />
        </mxCell>
        <mxCell id="Zlbz_0LO8d7bkOxlH6dM-139" style="edgeStyle=orthogonalEdgeStyle;rounded=0;orthogonalLoop=1;jettySize=auto;html=1;exitX=1;exitY=0.5;exitDx=0;exitDy=0;entryX=0;entryY=0.5;entryDx=0;entryDy=0;" parent="1" source="Zlbz_0LO8d7bkOxlH6dM-109" target="Zlbz_0LO8d7bkOxlH6dM-104" edge="1">
          <mxGeometry relative="1" as="geometry">
            <Array as="points">
              <mxPoint x="-350" y="-250" />
              <mxPoint x="-350" y="-250" />
            </Array>
          </mxGeometry>
        </mxCell>
        <mxCell id="Ou3ePZz4okydDDDF1puV-21" value="Machine" style="rhombus;whiteSpace=wrap;html=1;fontSize=16;" parent="1" vertex="1">
          <mxGeometry x="-760" y="920" width="80" height="80" as="geometry" />
        </mxCell>
        <mxCell id="Ou3ePZz4okydDDDF1puV-22" value="Input" style="whiteSpace=wrap;html=1;aspect=fixed;fontSize=16;dashed=1;" parent="1" vertex="1">
          <mxGeometry x="-640" y="920" width="80" height="80" as="geometry" />
        </mxCell>
        <mxCell id="Ou3ePZz4okydDDDF1puV-23" value="" style="endArrow=classic;html=1;rounded=0;fontSize=12;curved=1;startSize=8;endSize=8;" parent="1" edge="1">
          <mxGeometry width="50" height="50" relative="1" as="geometry">
            <mxPoint x="-520" y="959.5" as="sourcePoint" />
            <mxPoint x="-440" y="959.5" as="targetPoint" />
          </mxGeometry>
        </mxCell>
        <mxCell id="Ou3ePZz4okydDDDF1puV-26" value="Ingredient" style="edgeLabel;html=1;align=center;verticalAlign=middle;resizable=0;points=[];fontSize=16;" parent="Ou3ePZz4okydDDDF1puV-23" vertex="1" connectable="0">
          <mxGeometry x="0.25" y="4" relative="1" as="geometry">
            <mxPoint x="-10" y="25" as="offset" />
          </mxGeometry>
        </mxCell>
        <mxCell id="Ou3ePZz4okydDDDF1puV-24" value="" style="endArrow=classic;html=1;rounded=0;fontSize=12;curved=1;startSize=8;endSize=8;dashed=1;" parent="1" edge="1">
          <mxGeometry width="50" height="50" relative="1" as="geometry">
            <mxPoint x="-400" y="959.5" as="sourcePoint" />
            <mxPoint x="-320" y="959.5" as="targetPoint" />
          </mxGeometry>
        </mxCell>
        <mxCell id="Ou3ePZz4okydDDDF1puV-28" value="Refund" style="edgeLabel;html=1;align=center;verticalAlign=middle;resizable=0;points=[];fontSize=16;" parent="Ou3ePZz4okydDDDF1puV-24" vertex="1" connectable="0">
          <mxGeometry x="-0.25" y="-1" relative="1" as="geometry">
            <mxPoint x="10" y="20" as="offset" />
          </mxGeometry>
        </mxCell>
        <mxCell id="Ou3ePZz4okydDDDF1puV-25" value="Result" style="ellipse;whiteSpace=wrap;html=1;aspect=fixed;fontSize=16;sketch=1;curveFitting=1;jiggle=2;" parent="1" vertex="1">
          <mxGeometry x="-280" y="920" width="80" height="80" as="geometry" />
        </mxCell>
        <mxCell id="Ou3ePZz4okydDDDF1puV-31" style="edgeStyle=orthogonalEdgeStyle;rounded=0;orthogonalLoop=1;jettySize=auto;html=1;exitX=1;exitY=0.5;exitDx=0;exitDy=0;entryX=0;entryY=0.5;entryDx=0;entryDy=0;fontSize=12;startSize=8;endSize=8;" parent="1" source="Zlbz_0LO8d7bkOxlH6dM-26" target="Zlbz_0LO8d7bkOxlH6dM-5" edge="1">
          <mxGeometry relative="1" as="geometry" />
        </mxCell>
        <mxCell id="Ou3ePZz4okydDDDF1puV-32" value="" style="endArrow=classic;html=1;rounded=0;fontSize=12;curved=1;startSize=8;endSize=8;" parent="1" edge="1">
          <mxGeometry width="50" height="50" relative="1" as="geometry">
            <mxPoint x="200" y="-150" as="sourcePoint" />
            <mxPoint x="320" y="-150" as="targetPoint" />
          </mxGeometry>
        </mxCell>
        <mxCell id="Ou3ePZz4okydDDDF1puV-34" value="Ingredient" style="edgeLabel;html=1;align=center;verticalAlign=middle;resizable=0;points=[];fontSize=16;" parent="Ou3ePZz4okydDDDF1puV-32" vertex="1" connectable="0">
          <mxGeometry x="-0.3667" y="3" relative="1" as="geometry">
            <mxPoint x="22" y="3" as="offset" />
          </mxGeometry>
        </mxCell>
        <mxCell id="Ou3ePZz4okydDDDF1puV-33" value="" style="endArrow=classic;html=1;rounded=0;fontSize=12;curved=1;startSize=8;endSize=8;dashed=1;" parent="1" edge="1">
          <mxGeometry width="50" height="50" relative="1" as="geometry">
            <mxPoint x="520" y="-150" as="sourcePoint" />
            <mxPoint x="640" y="-150" as="targetPoint" />
          </mxGeometry>
        </mxCell>
        <mxCell id="Ou3ePZz4okydDDDF1puV-35" value="Refund" style="edgeLabel;html=1;align=center;verticalAlign=middle;resizable=0;points=[];fontSize=16;" parent="Ou3ePZz4okydDDDF1puV-33" vertex="1" connectable="0">
          <mxGeometry x="-0.2444" y="4" relative="1" as="geometry">
            <mxPoint x="15" y="4" as="offset" />
          </mxGeometry>
        </mxCell>
        <mxCell id="Ou3ePZz4okydDDDF1puV-36" style="edgeStyle=none;curved=1;rounded=0;orthogonalLoop=1;jettySize=auto;html=1;exitX=1;exitY=0.5;exitDx=0;exitDy=0;entryX=0;entryY=0.5;entryDx=0;entryDy=0;fontSize=12;startSize=8;endSize=8;" parent="1" source="Zlbz_0LO8d7bkOxlH6dM-69" target="Zlbz_0LO8d7bkOxlH6dM-50" edge="1">
          <mxGeometry relative="1" as="geometry" />
        </mxCell>
      </root>
    </mxGraphModel>
  </diagram>
</mxfile>
